<?xml version="1.0" encoding="utf-8"?>
<!-- Generator: Adobe Illustrator 22.1.0, SVG Export Plug-In . SVG Version: 6.00 Build 0)  -->
<svg version="1.1" id="Layer_1" xmlns="http://www.w3.org/2000/svg" xmlns:xlink="http://www.w3.org/1999/xlink" x="0px" y="0px"
	 viewBox="0 0 500 400" style="enable-background:new 0 0 500 400;" xml:space="preserve">
<style type="text/css">
	.st0{fill:#E6E7E8;}
	.st1{fill:#231F20;}
</style>
<g>
	<g>
		<g>
			<g>
				<g>
					<g>
						
							<rect x="249.5" y="279.7" transform="matrix(2.429138e-03 -1 1 2.429138e-03 -74.0903 573.8725)" class="st0" width="2.3" height="88.7"/>
					</g>
					<g>
						<polygon class="st0" points="216.6,341.7 214.4,340.9 250.5,246.4 286.6,340.9 284.5,341.7 250.5,252.7 						"/>
					</g>
					<g>
						<polygon class="st0" points="250.6,343 221.5,324.9 222.7,323 250.6,340.4 278.3,323 279.5,324.9 						"/>
					</g>
				</g>
				<g>
					<path class="st0" d="M286.1,343.3h-71.4l-10.3-19.1l0.3-0.6l45.9-76.3l46.1,76.7L286.1,343.3z M250.2,341.1h34.6l9.4-17
						l-43.5-72.4L207,324.3l9.1,16.8H250.2z"/>
				</g>
			</g>
			<g>
				<polygon class="st0" points="183.1,226.4 165.9,195 166.1,194.6 250.6,56.6 335.3,195 318.3,226.1 316.8,225.3 333.3,195 
					250.6,59.9 167.8,195 184.6,225.6 				"/>
			</g>
			<g>
				
					<rect x="312.5" y="93.7" transform="matrix(0.8528 -0.5222 0.5222 0.8528 -23.7516 183.3487)" class="st0" width="1.7" height="80.2"/>
			</g>
			<g>
				
					<rect x="147.7" y="133" transform="matrix(0.5221 -0.8529 0.8529 0.5221 -24.3916 224.0836)" class="st0" width="80.2" height="1.7"/>
			</g>
			<g>
				<path class="st0" d="M250.6,117.4c-16.7,0-30.3-13.6-30.3-30.3s13.6-30.3,30.3-30.3c16.7,0,30.3,13.6,30.3,30.3
					S267.3,117.4,250.6,117.4z M250.6,58.4c-15.8,0-28.6,12.8-28.6,28.6s12.8,28.6,28.6,28.6c15.8,0,28.6-12.8,28.6-28.6
					S266.4,58.4,250.6,58.4z"/>
			</g>
			<g>
				<path class="st0" d="M250.6,146.5c-16.5,0-30-13.5-30-30h1.7c0,15.6,12.7,28.3,28.3,28.3s28.3-12.7,28.3-28.3h1.7
					C280.6,133.1,267.1,146.5,250.6,146.5z"/>
			</g>
			<g>
				<polygon class="st0" points="323.2,275.7 321.7,274.9 333.3,253.7 250.6,118.5 167.8,253.7 179.5,274.9 178,275.7 165.9,253.6 
					166.1,253.2 250.6,115.3 335.3,253.6 				"/>
			</g>
			<g>
				<g>
					
						<rect x="201.8" y="317.4" transform="matrix(0.8773 -0.4799 0.4799 0.8773 -128.254 136.3795)" class="st0" width="1.7" height="3.4"/>
				</g>
				<g>
					<path class="st0" d="M197.3,311l-3.8-7l1.5-0.8l3.8,7L197.3,311z M189.6,297l-3.8-7l1.5-0.8l3.8,7L189.6,297z"/>
				</g>
				<g>
					<polygon class="st0" points="181.9,283 180.1,279.6 182.1,276.3 183.5,277.1 182,279.6 183.4,282.2 					"/>
				</g>
				<g>
					<path class="st0" d="M187,271.5l-1.4-0.9l3.5-5.7l1.4,0.9L187,271.5z M194,260.1l-1.4-0.9l3.5-5.7l1.4,0.9L194,260.1z
						 M200.9,248.8l-1.4-0.9l3.5-5.7l1.4,0.9L200.9,248.8z M207.9,237.4l-1.4-0.9l3.5-5.7l1.4,0.9L207.9,237.4z M214.8,226.1
						l-1.4-0.9l3.5-5.7l1.4,0.9L214.8,226.1z M221.8,214.7l-1.4-0.9l3.5-5.7l1.4,0.9L221.8,214.7z M228.7,203.4l-1.4-0.9l3.5-5.7
						l1.4,0.9L228.7,203.4z M235.6,192.1l-1.4-0.9l3.5-5.7l1.4,0.9L235.6,192.1z M242.6,180.7l-1.4-0.9l3.5-5.7l1.4,0.9L242.6,180.7
						z"/>
				</g>
				<g>
					<polygon class="st0" points="251.6,169.4 250.6,167.7 249.5,169.4 248.1,168.5 250.6,164.4 253.1,168.5 					"/>
				</g>
				<g>
					<path class="st0" d="M314.2,271.5l-3.5-5.7l1.4-0.9l3.5,5.7L314.2,271.5z M307.2,260.1l-3.5-5.7l1.4-0.9l3.5,5.7L307.2,260.1z
						 M300.3,248.8l-3.5-5.7l1.4-0.9l3.5,5.7L300.3,248.8z M293.3,237.4l-3.5-5.7l1.4-0.9l3.5,5.7L293.3,237.4z M286.4,226.1
						l-3.5-5.7l1.4-0.9l3.5,5.7L286.4,226.1z M279.4,214.7l-3.5-5.7l1.4-0.9l3.5,5.7L279.4,214.7z M272.5,203.4l-3.5-5.7l1.4-0.9
						l3.5,5.7L272.5,203.4z M265.5,192.1l-3.5-5.7l1.4-0.9l3.5,5.7L265.5,192.1z M258.6,180.7l-3.5-5.7l1.4-0.9l3.5,5.7L258.6,180.7
						z"/>
				</g>
				<g>
					<polygon class="st0" points="319.2,283 317.8,282.2 319.1,279.6 317.6,277.1 319.1,276.3 321.1,279.6 					"/>
				</g>
				<g>
					<path class="st0" d="M302.6,313.5l-1.5-0.8l2.8-5.1l1.5,0.8L302.6,313.5z M308.1,303.3l-1.5-0.8l2.8-5.1l1.5,0.8L308.1,303.3z
						 M313.7,293.1l-1.5-0.8l2.8-5.1l1.5,0.8L313.7,293.1z"/>
				</g>
				<g>
					
						<rect x="296.5" y="318.8" transform="matrix(0.4797 -0.8774 0.8774 0.4797 -125.3016 427.9642)" class="st0" width="3.4" height="1.7"/>
				</g>
			</g>
			<g>
				<path class="st0" d="M278.1,101.6h-55l27.5-44.8L278.1,101.6z M226.1,99.9h49L250.6,60L226.1,99.9z"/>
			</g>
			<g>
				<path class="st0" d="M250.6,101.6c-8.5,0-15.4-6.9-15.4-15.4s6.9-15.4,15.4-15.4S266,77.7,266,86.2S259.1,101.6,250.6,101.6z
					 M250.6,72.5c-7.6,0-13.7,6.1-13.7,13.7c0,7.6,6.1,13.7,13.7,13.7c7.6,0,13.7-6.1,13.7-13.7C264.3,78.6,258.1,72.5,250.6,72.5z"
					/>
			</g>
			<g>
				
					<rect x="170.8" y="217.6" transform="matrix(0.8773 -0.48 0.48 0.8773 -88.2593 110.3383)" class="st0" width="1.7" height="20.3"/>
			</g>
			<g>
				
					<rect x="319.3" y="226.9" transform="matrix(0.4797 -0.8774 0.8774 0.4797 -28.4407 407.5141)" class="st0" width="20.2" height="1.7"/>
			</g>
		</g>
	</g>
	<g>
		<line class="st1" x1="162.2" y1="211.9" x2="161.9" y2="212.2"/>
		<path class="st1" d="M177.7,210c0.9-0.3,1.9-0.5,1.8,0.6c-0.1,0.5-0.6,0.8-1,0.9c-0.5,0.1-1,0.2-1.4,0.4c-0.9,0.6-1,2-0.3,2.9
			c0.7,0.9,1.8,1.2,2.9,1.4c2.5,0.4,5.2-0.1,7.5-1.1s4.4-2.7,6.2-4.5c0.4-0.4,1.1-0.9,1.6-0.5c0.5,0.5,0,1.3-0.5,1.8
			c-2.9,2.4-6.1,4.4-9.7,5.5c-1.8,0.6-3.8,0.9-5.6,0.4c-1.8-0.5-3.5-1.9-3.9-3.7c-0.2-1.2,0.3-2.7,1.2-3.5
			C176.7,210.5,177.2,210.2,177.7,210z"/>
		<path class="st1" d="M211.6,209.8c0.1,0,0.2,0,0.3,0.1c0.3,0.2,0.4,0.8,0.2,1.1c-0.2,0.4-0.6,0.6-0.9,0.8c-4.7,2.7-9.9,4.7-15.2,6
			c-0.4,0.1-0.9,0.2-1.3,0c-0.7-0.3-0.9-1.1-1-1.8c-0.1-1.2,0-2.3,0.2-3.5c0.1-0.2,0.1-0.5,0-0.7c-0.1-0.2-0.3-0.3-0.4-0.5
			c-0.3-0.6,0.4-1.2,0.8-1.8c0.3-0.4,0.4-0.9,0.5-1.4c1-4.5,2.5-8.8,4.3-13c0.3-0.8,2.4-5.7,3.6-3.6c0.2,0.4,0.2,0.8,0.2,1.2
			c-0.1,1.8-0.5,3.6-1.1,5.3c-1,3.4-2.3,6.8-4.2,9.8c-0.9,1.4-2.1,2.8-2.5,4.4c-0.4,1.4-0.3,2.9-0.2,4.3c5.6-1.2,10.9-3.4,15.7-6.4
			C210.9,210,211.2,209.8,211.6,209.8z M196.4,207c-0.1,0.2-0.1,0.4-0.2,0.5c0.3-1.1,1.4-2.2,1.9-3.2c0.6-1.2,1.1-2.4,1.6-3.6
			c0.9-2.3,2-5.1,2-7.5c-0.7,0.5-1.1,2.2-1.5,3.1c-0.5,1.2-1,2.5-1.5,3.8C197.8,202.4,197,204.7,196.4,207z"/>
		<path class="st1" d="M233.1,210.1c0.1,0.3,0,0.6-0.2,0.9c-0.3,0.3-0.7,0.5-1.1,0.7c-2.2,0.9-4.4,1.9-6.6,2.8
			c-1.1,0.4-2.3,0.9-3.8,1.5c-1.5,0.5-2.8,0.9-4.1,1.2c-1.2,0.3-2.4,0.5-3.4,0.5c-2,0-3.9-0.8-4.2-3c-0.2-1.4,0.2-3,0.8-4.2
			c0.2-0.4,0.5-0.7,0.9-0.6c0.4,0.1,0.6,0.6,0.6,1c-0.1,0.4-0.3,0.8-0.5,1.1c-0.5,1-1,2.7-0.2,3.6c2.2,2.3,7,0.2,9.4-0.7
			c3.6-1.2,7.2-2.9,10.5-4.8c0.4-0.2,0.8-0.4,1.2-0.4C232.8,209.7,233,209.9,233.1,210.1z M215.6,203.6c-0.6,0.1-1.1,0.2-1.7,0.3
			c-0.5,0.1-1.1,0.1-1.5-0.3c-0.4-0.4-0.4-1.2,0.1-1.4c0.2-0.1,0.4-0.1,0.5,0c2.5,0.1,5-0.1,7.4-0.6c0.1,0,0.2-0.1,0.4,0
			c0.5,0.1,0.5,0.8,0.2,1.1c-0.3,0.3-0.8,0.4-1.3,0.5C218.3,203.3,216.9,203.4,215.6,203.6z"/>
		<path class="st1" d="M246,210.2c0.1,0.2,0.1,0.5,0,0.8c-0.2,0.4-0.5,0.6-0.9,0.9c-4.8,3.4-9.4,7.1-13.6,11.1
			c-0.4,0.3-0.7,0.7-1,1.1c-0.3,0.4-0.4,1-0.5,1.5c-0.5,1.8-1.4,3.9-3.3,4.3c-0.6,0.1-1.4,0-1.7-0.5c-0.3-0.6,0-1.3,0.4-1.9
			c0.8-1.4,1.9-2.6,3.1-3.7c0.3-0.3,0.7-0.6,0.9-1c0.2-0.4,0.3-0.8,0.3-1.3c0.3-2.8,0.6-5.6,0.9-8.4c0.1-0.9,0.2-2.2,1-2.9
			c1.3-1.2,1.4,0.5,1,1.5c-1.1,3.1-1.4,6.4-1.6,9.6c4.5-3.7,9-7.5,13.5-11.2c0.4-0.3,0.8-0.6,1.2-0.4
			C245.8,209.9,245.9,210,246,210.2z M228.1,227.3c0.4-0.6,0.6-1.2,0.7-1.8c-0.2,0.1-0.4,0.3-0.5,0.5c-0.2,0.2-0.4,0.4-0.5,0.6
			c0,0,0,0,0,0.1c0,0,0,0-0.1,0c-0.2,0.3-0.5,0.5-0.7,0.8c-0.2,0.3-0.4,0.5-0.7,0.9c0,0,0,0.1-0.1,0.1c0,0,0,0.1-0.1,0.1
			c0.2,0,0.4,0,0.6-0.1C227.3,228.3,227.7,227.9,228.1,227.3z M230.9,221L230.9,221L230.9,221L230.9,221z"/>
		<path class="st1" d="M258.9,210.2c0.1,0.2,0.1,0.5,0,0.8c-0.2,0.4-0.5,0.6-0.9,0.9c-4.8,3.4-9.4,7.1-13.6,11.1
			c-0.4,0.3-0.7,0.7-1,1.1c-0.3,0.4-0.4,1-0.5,1.5c-0.5,1.8-1.4,3.9-3.3,4.3c-0.6,0.1-1.4,0-1.7-0.5c-0.3-0.6,0-1.3,0.4-1.9
			c0.8-1.4,1.9-2.6,3.1-3.7c0.3-0.3,0.7-0.6,0.9-1c0.2-0.4,0.3-0.8,0.3-1.3c0.3-2.8,0.6-5.6,0.9-8.4c0.1-0.9,0.2-2.2,1-2.9
			c1.3-1.2,1.4,0.5,1,1.5c-1.1,3.1-1.4,6.4-1.6,9.6c4.5-3.7,9-7.5,13.5-11.2c0.4-0.3,0.8-0.6,1.2-0.4
			C258.8,209.9,258.9,210,258.9,210.2z M241,227.3c0.2-0.3,0.3-0.5,0.4-0.9c0.1-0.3,0.3-0.7,0.4-1c-0.2,0.2-0.4,0.4-0.6,0.6
			c-0.2,0.2-0.4,0.4-0.5,0.6c0,0,0,0,0,0.1c0,0,0,0-0.1,0c-0.2,0.3-0.5,0.5-0.7,0.8c-0.2,0.3-0.4,0.5-0.7,0.8l0,0c0,0,0,0.1-0.1,0.1
			c0,0,0,0.1-0.1,0.1c0.2,0,0.4,0,0.6-0.1c0.2-0.1,0.4-0.2,0.7-0.4S240.8,227.6,241,227.3z M243.9,221L243.9,221L243.9,221
			L243.9,221z"/>
		<path class="st1" d="M257.7,210c0.1-0.1,0.2-0.1,0.2-0.1c0.5-0.2,1.2,0.1,1.1,0.9c-0.1,0.6-0.6,0.9-1,1.3
			c-1.3,1.2-2.3,2.7-2.9,4.3c1-0.8,2-1.5,3-2.3c0.2-0.1,0.4-0.3,0.6-0.3c0.3,0,0.6,0.2,0.9,0.3c1.6,1.1,3.3,2.2,5.3,2.4
			c1.9,0.1,3.8-0.8,5.3-2c1.5-1.2,2.7-2.7,4.1-4c0.3-0.3,0.7-0.6,1.1-0.4c0.3,0.1,0.5,0.6,0.4,0.9c-0.1,0.3-0.3,0.6-0.6,0.9
			c-1.3,1.4-2.8,2.7-4.3,3.8c-1.3,0.9-2.6,1.7-4.1,2.1c-2.7,0.6-5.5-0.7-7.9-2.2c-1.1,0.9-2.3,1.6-3.5,2.2c-0.3,0.1-0.6,0.3-0.8,0.2
			c-0.7-0.2-0.7-1.2-0.4-1.9c0.6-1.6,1.4-3,2.4-4.3C256.6,211.3,257.2,210.3,257.7,210z M254.7,216.5
			C254.7,216.5,254.7,216.5,254.7,216.5C254.7,216.5,254.7,216.5,254.7,216.5C254.7,216.5,254.7,216.5,254.7,216.5z M254.9,216.7
			C254.9,216.7,254.9,216.7,254.9,216.7C254.9,216.7,254.9,216.7,254.9,216.7z"/>
		<path class="st1" d="M179.6,210.1c-0.1-0.1-0.2-0.3-0.3-0.3c-0.4-0.2-0.8,0.1-1.2,0.3c-2.7,2-5.5,4-8.6,5.3c-1,0.4-2.1,0.7-3,0.1
			c-0.9-0.7-0.9-1.9-1.4-2.8c-1.1-1.9-1.3,0.3-0.8,1.4c0.4,1,0.9,2.1,1.9,2.7c1.3,0.8,3,0.2,4.4-0.4c2.8-1.3,5.4-2.9,8-4.6
			c0.4-0.2,0.7-0.5,0.9-0.9C179.6,210.7,179.7,210.4,179.6,210.1z"/>
		<path class="st1" d="M172.9,179.7C172.9,179.7,172.9,179.7,172.9,179.7c-0.3-0.5-0.9-0.5-1.3-0.3c-0.4,0.2-0.7,0.6-1,1
			c-3.3,4.7-6.5,9.4-9.7,14.1c-1.3,1.9-2.6,3.9-4,5.8c-0.8,1.1-1.5,2.2-2.3,3.3c-0.7,1-1.4,1.9-2.1,2.9c-0.4,0.5-0.8,1-1.1,1.5
			l-1.3,1.6c-0.3,0.3-0.5,0.6-0.8,0.8c0,0.1-0.1,0.1-0.2,0.1c-0.1-0.2-0.1-0.5-0.1-0.7c0.1-0.4,0.1-0.8,0.2-1.2c0.2-1,0.5-2,0.8-2.9
			l0.1-0.2c1.1-2.6,2.2-5.3,3.3-7.9c1.1-2.6,2.3-5.1,3.4-7.7c0.2-0.4,0.3-0.9,0.5-1.3c0-0.1,0-0.2-0.1-0.3c-0.2-0.1-0.3-0.3-0.6-0.3
			c-0.1,0-0.2,0-0.2-0.1c-0.7-0.3-1.3,0.7-1.7,1.1c-0.6,0.6-1.1,1.3-1.6,1.9c-1.2,1.5-2.3,3-3.5,4.5c-3.4,4.3-6.8,8.7-10,13.3
			c-0.7,1-1.4,1.9-2.1,2.9c-0.9,1.3-1.7,2.6-2.6,3.8c-0.4,0.6-0.8,1.1-1.2,1.7c-0.4,0.6-0.9,1.1-1.2,1.7c0,0-0.1,0.1-0.1,0.1
			c0-0.1,0-0.1,0-0.2c1.1-2.4,1.9-5,2.9-7.5c1.4-3.4,2.8-6.8,4.2-10.2c0.6-1.4,1.1-2.8,1.4-4.2c0-0.1,0-0.3-0.1-0.3
			c-0.1,0-1.5,3.5-1.6,3.8c-0.6,1.3-1.1,2.6-1.7,3.9c-1.1,2.5-2.1,5.1-3.2,7.6c-1.1,2.6-2.3,5.3-3.1,8c-0.1,0.4-0.2,0.7,0.2,0.9
			l0.2,0.1c0.3,0.1,0.6,0.1,0.9-0.2c0.1-0.1,0.2-0.2,0.3-0.3c0.4-0.5,0.7-1,1.1-1.5c0.6-0.8,1.2-1.7,1.8-2.6c0.5-0.7,1-1.5,1.5-2.2
			c2.8-4.1,5.8-8.1,8.8-12.1c2.8-3.4,5.5-7,8.3-10.5c0.2-0.2,0.4-0.4,0.6-0.5c-0.2,0.1-0.6,1.3-0.7,1.6c-0.3,0.6-0.5,1.2-0.8,1.8
			c-0.5,1.2-1.1,2.4-1.6,3.6c-1.6,3.7-3.4,7.5-4.1,11.5c-0.1,0.4-0.1,0.8-0.1,1.2c0,0.4,0.2,0.7,0.6,0.9c0.1,0.1,0.2,0.1,0.3,0.1
			c0.3,0.1,0.6,0.1,0.9,0c0.2-0.1,0.5-0.2,0.7-0.4c0.4-0.4,0.8-0.7,1.2-1.2c7.3-8.4,12.9-18.2,19.3-27.3c0.1-0.2,0.3-0.4,0.4-0.6
			c-0.4,0.5-0.5,1.3-0.8,1.9c-0.3,0.7-0.5,1.3-0.8,2c-0.5,1.3-1,2.7-1.6,4c-1,2.7-2,5.3-3,8c-1.9,5.3-3.7,10.7-5.1,16.2
			c-1.2,4.6-2.2,9.2-3,13.9c-0.1,0.3-0.1,0.6,0,0.9c0.1,0.3,0.4,0.5,0.7,0.4c0.3-0.1,0.3-0.4,0.4-0.7c2.7-16.5,8.7-32.1,15-47.4
			C173,180.8,173.2,180.2,172.9,179.7z"/>
		<g>
			<path class="st1" d="M369.9,192.6c-0.1,0.1-0.2,0-0.3,0c-0.5-0.3-1-0.3-1.6-0.4c-0.7-0.1-1.5-0.2-2.2-0.2
				c-2.2-0.1-4.4-0.2-6.6-0.1h-3.7c-1.4,0-2.8,0.1-4.2,0.1c-1.7,0-3.4,0.1-5.1,0.2c-0.5,0-1,0-1.5,0c-0.3,0-0.4,0.1-0.6,0.3
				c-0.3,0.5-0.5,1-0.8,1.6c-1.7,3.3-3.2,6.6-4.5,10c-0.4,1.1-0.9,2.2-1.3,3.4c-1,2.8-2,5.6-2.9,8.4c-0.3,1-0.6,2-0.9,3
				c-0.4,1.1-0.7,2.3-1,3.4c-0.2,0.6-0.3,1.2-0.5,1.8c-0.1,0.4-0.1,1.9-0.6,1.9c-0.1,0-0.1,0-0.2,0c0,0-0.1,0-0.1,0
				c-0.1,0-0.1,0-0.1,0c-0.7-0.4-0.6-0.6-0.4-1.3c0.1-0.4,0.3-0.9,0.4-1.3c0.3-0.9,0.5-1.7,0.7-2.6c0.3-1,0.6-2.1,1-3.1
				c0.1-0.3,0.2-0.7,0.3-1c0.2-0.5,0.3-1.1,0.5-1.6c0.1-0.5,0.3-1,0.4-1.5c0.2-0.6,0.4-1.1,0.5-1.6l0.7-2.3c0.2-0.6,0.4-1.2,0.6-1.8
				c1.3-3.6,2.8-7,4.4-10.5c0.5-1.2,1.1-2.3,1.7-3.5l0.6-1.2c0.2-0.3,0.1-0.4-0.2-0.4c-0.7,0-1.4,0.1-2.1,0.1
				c-6.6,0.4-13.2,1.1-19.8,2.1c-1.5,0.2-3,0.5-4.6,0.4c-0.3,0-0.7-0.1-0.9-0.4c3.1-0.5,6.1-1,9.2-1.5c1.6-0.2,3.1-0.5,4.7-0.7
				c1.3-0.2,2.6-0.3,3.9-0.5c0.5-0.1,0.9-0.1,1.4-0.1l2.2-0.2c0.6-0.1,1.2-0.1,1.7-0.1c0.9-0.1,1.7-0.1,2.5-0.2h0.6
				c0.6,0,1.2-0.1,1.8-0.1c0.2,0,0.3-0.1,0.4-0.2c0.1-0.1,0.2-0.3,0.3-0.4c0.5-1.3,1.5-2.5,2.2-3.6c1.5-2.3,3.2-4.6,5.1-6.7
				c0.1-0.1,0.1-0.1,0.2-0.1c0.2,0,0.3,0.1,0.3,0.3s-0.1,0.3-0.2,0.5c-1.1,1.6-2.3,3.3-3.3,4.9c-0.5,0.8-1.1,1.7-1.6,2.5
				c-0.3,0.4-0.5,0.8-0.8,1.3c-0.2,0.3-0.6,0.8-0.6,1.2c0,0-0.1,0.1-0.1,0.1c0,0,0,0.1,0,0.2c0.1,0.1,0.2,0.1,0.3,0.1
				c0.7,0,1.3,0,2,0c0.8,0,1.6-0.1,2.4-0.1c3.6-0.1,7.2-0.1,10.8-0.1c1.8,0,3.6,0,5.4,0.2c1.2,0.1,2.8,0.1,3.7,1.1
				c0,0.1,0.1,0.1,0.1,0.2C369.9,192.4,370,192.5,369.9,192.6z"/>
			<path class="st1" d="M351.3,211.6c-0.1,0.3-0.5,0.4-0.9,0.5c-0.9,0.3-1.9,0.5-2.8,0.7c-1.1,0.2-2.4,0.4-3.4-0.2
				c-0.1-0.1-0.2-0.1-0.3-0.1c-0.2,0-0.2,0.2-0.3,0.4c-0.5,1.4-1.3,2.7-2.4,3.7c-0.5,0.5-1.3,1-2,0.8c-0.6-0.2-1-0.8-1.1-1.4
				c-0.1-0.6,0.1-1.3,0.4-1.9c0.4-1,1-2,1.6-2.9c0.2-0.2,1.8-2.4,1.9-1.1c0,0.3-0.2,0.6-0.4,0.8c-1.1,1.5-1.9,3.2-2.4,4.9
				c0,0.1,0,0.2,0,0.3c0.1,0.1,0.3,0,0.4-0.1c1.8-1.4,2.9-3.4,3.5-5.6c0-0.2,0.1-0.4,0.3-0.4c0.1,0,0.1,0,0.2,0
				c0.5,0.3,0.5,1.1,1,1.3c0.2,0.1,0.3,0.1,0.5,0.1c1.6,0,3.2-0.3,4.7-0.7c0.3-0.1,0.6-0.2,0.9-0.1c0.3,0,0.6,0.3,0.6,0.6
				C351.3,211.4,351.3,211.5,351.3,211.6z"/>
			<path class="st1" d="M335.5,211.6c-0.1,0.3-0.5,0.4-0.9,0.5c-0.9,0.3-1.9,0.5-2.8,0.7c-1.1,0.2-6.2,0.4-7.2-0.2
				c-0.1-0.1-0.2-0.1-0.3-0.1c-0.2,0-0.2,0.2-0.3,0.4c-0.5,1.4-1.3,2.7-2.4,3.7c-0.5,0.5-1.3,1-2,0.8c-0.6-0.2-1-0.8-1.1-1.4
				s0.1-1.3,0.4-1.9c0.4-1,1-2,1.6-2.9c0.2-0.2,1.8-2.4,1.9-1.1c0,0.3-0.2,0.6-0.4,0.8c-1.1,1.5-1.9,3.2-2.4,4.9c0,0.1,0,0.2,0,0.3
				c0.1,0.1,0.3,0,0.4-0.1c1.8-1.4,2.9-3.4,3.5-5.6c0-0.2,0.1-0.4,0.3-0.4c0.1,0,0.1,0,0.2,0c0.5,0.3,0.5,1.1,1,1.3
				c0.2,0.1,0.3,0.1,0.5,0.1c1.6,0,7-0.3,8.5-0.7c0.3-0.1,0.6-0.2,0.9-0.1c0.3,0,0.6,0.3,0.6,0.6
				C335.5,211.4,335.5,211.5,335.5,211.6z"/>
			<path class="st1" d="M344.2,222.6c-0.1-0.1-0.3-0.2-0.4-0.4c-1-0.7-2.5-1-3.6-1.3c-1.4-0.3-2.8-0.6-4.2-0.8
				c-6.5-1-13.1-1.8-19.6-1.7c-1.8,0-3.7,0.3-5.6,0.3c-0.1,0-0.2,0-0.3,0c-0.1-0.2-0.1-0.4,0-0.5c0.1-0.5,0.1-0.9,0.2-1.4
				c0.2-4.8-2.7-9.1-6.1-12c-2.6-2.2-5.5-4.1-8.1-6.3c-0.9-0.7-1.5-1.3-1.8-2.4c-0.2-1-0.3-1.9,0.3-2.7s1.3-1.5,2.1-2.1
				c4.2-3.2,9.1-5.3,14.1-6.9c3.4-1.1,6.8-2.3,10.4-2c0.4,0,0.9,0.1,1.2,0.4c0.3,0.3,0.5,0.8,0.2,1.2c0.4-0.3,0.4-0.9,0.1-1.3
				c-0.3-0.4-0.8-0.5-1.3-0.6c-3-0.6-6-0.2-9,0.5c-4.7,1.1-9.3,2.9-13.5,5.3c-1.7,0.9-3.3,2-4.7,3.4c-1,1-2,2.4-1.8,3.9
				c0.1,1.1,0.8,2,1.6,2.9c3.1,3.4,7.4,5.5,10.6,8.8c1.2,1.2,2.2,2.5,2.9,3.9c1,1.9,1.4,3.9,1.1,6.2c-0.1,0.5-0.1,1.2-0.3,1.6
				c-0.2,0.4-0.7,0.5-1.2,0.6c-3,0.4-6,1-9,1.6c-1.4,0.3-2.8,0.6-4.2,0.9c-0.7,0.2-1.4,0.4-2.2,0.6c-0.6,0.2-1.5,0.7-2.1,0.7
				c-1.3,0.4-2.6,1-3.9,1.6c-1.1,0.5-2.6,1.1-3.3,2.2c-0.3,0.5-0.4,0.9-0.1,1.4c0.2,0.3,0.4,0.6,0.7,0.8c0.6,0.5,1.3,0.8,2.1,1
				c1.2,0.4,2.6,0.5,3.9,0.6c2,0.1,4-0.1,6-0.5c4.6-0.8,9.8-3,12.7-6.8c0.3-0.4,0.7-0.9,0.9-1.4c0.2-0.3,0.7-0.9,0.7-1.3
				c0-0.3,0.2-0.5,0.5-0.5c0.4-0.1,0.7-0.1,1-0.1c6.4-0.6,12.9-0.3,19.3,0.4c1.5,0.2,3.1,0.4,4.6,0.6l4.5,0.7
				c0.8,0.1,1.6,0.4,2.4,0.5c0.7,0.2,1.4,0.3,2,0.8c0.1,0.1,0.3,0.1,0.3,0C344.3,222.9,344.3,222.8,344.2,222.6z M307.9,220.6
				c-0.5,0.7-0.9,1.4-1.5,2.1c-1.1,1.2-2.4,2.2-3.7,3.1c-1.9,1.2-3.9,2-6,2.6c-1.3,0.4-2.7,0.6-4,0.8c-0.5,0.1-1,0.1-1.5,0.1
				c-0.4,0-0.7,0.1-1,0.1c-1.5,0-2.9-0.1-4.3-0.3c-0.5-0.1-0.9-0.2-1.3-0.6c-0.3-0.2-0.5-0.6-0.4-1c0-0.1,0.1-0.2,0.1-0.2
				c0.3-0.4,0.7-0.7,1.2-1.1c0.9-0.6,1.9-1,2.9-1.4c1.5-0.6,3.1-1.1,4.7-1.6c1.6-0.5,3.3-0.9,5-1.3c1.5-0.3,3-0.6,4.5-0.9
				c1.5-0.2,2.9-0.5,4.4-0.7l0.8-0.1c0.1,0,0.2,0,0.4,0C308,220.4,308,220.5,307.9,220.6z"/>
		</g>
	</g>
</g>
</svg>
