<?xml version="1.0" encoding="utf-8"?>
<!-- Generator: Adobe Illustrator 22.1.0, SVG Export Plug-In . SVG Version: 6.00 Build 0)  -->
<svg version="1.1" id="Layer_1" xmlns="http://www.w3.org/2000/svg" xmlns:xlink="http://www.w3.org/1999/xlink" x="0px" y="0px"
	 viewBox="0 0 476.9 365.9" style="enable-background:new 0 0 476.9 365.9;" xml:space="preserve">
<style type="text/css">
	.st0{display:none;}
	.st1{display:inline;}
	.st2{fill:#E6E7E8;}
	.st3{display:none;fill:#FFFFFF;}
</style>
<g class="st0">
	<g class="st1">
		<g>
			<path class="st2" d="M404.6-38.8c-1.8,0-3.2-1.4-3.2-3.2c0-1.8,1.4-3.2,3.2-3.2c1.8,0,3.2,1.4,3.2,3.2
				C407.8-40.2,406.4-38.8,404.6-38.8z"/>
		</g>
		<g>
			<path class="st2" d="M404.6-14.5c-1.8,0-3.2-1.4-3.2-3.2s1.4-3.2,3.2-3.2c1.8,0,3.2,1.4,3.2,3.2S406.4-14.5,404.6-14.5z"/>
		</g>
		<g>
			<path class="st2" d="M404.6,9.8c-1.8,0-3.2-1.4-3.2-3.2s1.4-3.2,3.2-3.2c1.8,0,3.2,1.4,3.2,3.2S406.4,9.8,404.6,9.8z"/>
		</g>
		<g>
			<path class="st2" d="M404.6,34c-1.8,0-3.2-1.4-3.2-3.2c0-1.8,1.4-3.2,3.2-3.2c1.8,0,3.2,1.4,3.2,3.2
				C407.8,32.6,406.4,34,404.6,34z"/>
		</g>
		<g>
			<path class="st2" d="M404.6,58.3c-1.8,0-3.2-1.4-3.2-3.2c0-1.8,1.4-3.2,3.2-3.2c1.8,0,3.2,1.4,3.2,3.2
				C407.8,56.9,406.4,58.3,404.6,58.3z"/>
		</g>
		<g>
			<path class="st2" d="M404.6,82.6c-1.8,0-3.2-1.4-3.2-3.2c0-1.8,1.4-3.2,3.2-3.2c1.8,0,3.2,1.4,3.2,3.2
				C407.8,81.1,406.4,82.6,404.6,82.6z"/>
		</g>
		<g>
			<path class="st2" d="M404.6,106.8c-1.8,0-3.2-1.4-3.2-3.2s1.4-3.2,3.2-3.2c1.8,0,3.2,1.4,3.2,3.2S406.4,106.8,404.6,106.8z"/>
		</g>
		<g>
			<path class="st2" d="M404.6,131.1c-1.8,0-3.2-1.4-3.2-3.2c0-1.8,1.4-3.2,3.2-3.2c1.8,0,3.2,1.4,3.2,3.2
				C407.8,129.7,406.4,131.1,404.6,131.1z"/>
		</g>
		<g>
			<path class="st2" d="M404.6,155.4c-1.8,0-3.2-1.4-3.2-3.2c0-1.8,1.4-3.2,3.2-3.2c1.8,0,3.2,1.4,3.2,3.2
				C407.8,153.9,406.4,155.4,404.6,155.4z"/>
		</g>
		<g>
			<path class="st2" d="M404.6,179.6c-1.8,0-3.2-1.4-3.2-3.2c0-1.8,1.4-3.2,3.2-3.2c1.8,0,3.2,1.4,3.2,3.2
				C407.8,178.2,406.4,179.6,404.6,179.6z"/>
		</g>
		<g>
			<path class="st2" d="M404.6,203.9c-1.8,0-3.2-1.4-3.2-3.2s1.4-3.2,3.2-3.2c1.8,0,3.2,1.4,3.2,3.2S406.4,203.9,404.6,203.9z"/>
		</g>
		<g>
			<path class="st2" d="M404.6,228.2c-1.8,0-3.2-1.4-3.2-3.2s1.4-3.2,3.2-3.2c1.8,0,3.2,1.4,3.2,3.2S406.4,228.2,404.6,228.2z"/>
		</g>
		<g>
			<path class="st2" d="M404.6,252.5c-1.8,0-3.2-1.4-3.2-3.2c0-1.8,1.4-3.2,3.2-3.2c1.8,0,3.2,1.4,3.2,3.2
				C407.8,251,406.4,252.5,404.6,252.5z"/>
		</g>
		<g>
			<path class="st2" d="M404.6,276.7c-1.8,0-3.2-1.4-3.2-3.2c0-1.8,1.4-3.2,3.2-3.2c1.8,0,3.2,1.4,3.2,3.2
				C407.8,275.3,406.4,276.7,404.6,276.7z"/>
		</g>
	</g>
	<g class="st1">
		<g>
			<path class="st2" d="M368.3-38.8c-1.8,0-3.2-1.4-3.2-3.2c0-1.8,1.4-3.2,3.2-3.2c1.8,0,3.2,1.4,3.2,3.2
				C371.5-40.2,370-38.8,368.3-38.8z"/>
		</g>
		<g>
			<path class="st2" d="M368.3-14.5c-1.8,0-3.2-1.4-3.2-3.2s1.4-3.2,3.2-3.2c1.8,0,3.2,1.4,3.2,3.2S370-14.5,368.3-14.5z"/>
		</g>
		<g>
			<path class="st2" d="M368.3,9.8c-1.8,0-3.2-1.4-3.2-3.2s1.4-3.2,3.2-3.2c1.8,0,3.2,1.4,3.2,3.2S370,9.8,368.3,9.8z"/>
		</g>
		<g>
			<path class="st2" d="M368.3,34c-1.8,0-3.2-1.4-3.2-3.2c0-1.8,1.4-3.2,3.2-3.2c1.8,0,3.2,1.4,3.2,3.2C371.5,32.6,370,34,368.3,34z
				"/>
		</g>
		<g>
			<path class="st2" d="M368.3,58.3c-1.8,0-3.2-1.4-3.2-3.2c0-1.8,1.4-3.2,3.2-3.2c1.8,0,3.2,1.4,3.2,3.2
				C371.5,56.9,370,58.3,368.3,58.3z"/>
		</g>
		<g>
			<path class="st2" d="M368.3,82.6c-1.8,0-3.2-1.4-3.2-3.2c0-1.8,1.4-3.2,3.2-3.2c1.8,0,3.2,1.4,3.2,3.2
				C371.5,81.1,370,82.6,368.3,82.6z"/>
		</g>
		<g>
			<path class="st2" d="M368.3,106.8c-1.8,0-3.2-1.4-3.2-3.2s1.4-3.2,3.2-3.2c1.8,0,3.2,1.4,3.2,3.2S370,106.8,368.3,106.8z"/>
		</g>
		<g>
			<path class="st2" d="M368.3,131.1c-1.8,0-3.2-1.4-3.2-3.2c0-1.8,1.4-3.2,3.2-3.2c1.8,0,3.2,1.4,3.2,3.2
				C371.5,129.7,370,131.1,368.3,131.1z"/>
		</g>
		<g>
			<path class="st2" d="M368.3,155.4c-1.8,0-3.2-1.4-3.2-3.2c0-1.8,1.4-3.2,3.2-3.2c1.8,0,3.2,1.4,3.2,3.2
				C371.5,153.9,370,155.4,368.3,155.4z"/>
		</g>
		<g>
			<path class="st2" d="M368.3,179.6c-1.8,0-3.2-1.4-3.2-3.2c0-1.8,1.4-3.2,3.2-3.2c1.8,0,3.2,1.4,3.2,3.2
				C371.5,178.2,370,179.6,368.3,179.6z"/>
		</g>
		<g>
			<path class="st2" d="M368.3,203.9c-1.8,0-3.2-1.4-3.2-3.2s1.4-3.2,3.2-3.2c1.8,0,3.2,1.4,3.2,3.2S370,203.9,368.3,203.9z"/>
		</g>
		<g>
			<path class="st2" d="M368.3,228.2c-1.8,0-3.2-1.4-3.2-3.2s1.4-3.2,3.2-3.2c1.8,0,3.2,1.4,3.2,3.2S370,228.2,368.3,228.2z"/>
		</g>
		<g>
			<path class="st2" d="M368.3,252.5c-1.8,0-3.2-1.4-3.2-3.2c0-1.8,1.4-3.2,3.2-3.2c1.8,0,3.2,1.4,3.2,3.2
				C371.5,251,370,252.5,368.3,252.5z"/>
		</g>
		<g>
			<path class="st2" d="M368.3,276.7c-1.8,0-3.2-1.4-3.2-3.2c0-1.8,1.4-3.2,3.2-3.2c1.8,0,3.2,1.4,3.2,3.2
				C371.5,275.3,370,276.7,368.3,276.7z"/>
		</g>
	</g>
	<g class="st1">
		<g>
			<path class="st2" d="M331.9-38.8c-1.8,0-3.2-1.4-3.2-3.2c0-1.8,1.4-3.2,3.2-3.2c1.8,0,3.2,1.4,3.2,3.2
				C335.1-40.2,333.7-38.8,331.9-38.8z"/>
		</g>
		<g>
			<path class="st2" d="M331.9-14.5c-1.8,0-3.2-1.4-3.2-3.2s1.4-3.2,3.2-3.2c1.8,0,3.2,1.4,3.2,3.2S333.7-14.5,331.9-14.5z"/>
		</g>
		<g>
			<path class="st2" d="M331.9,9.8c-1.8,0-3.2-1.4-3.2-3.2s1.4-3.2,3.2-3.2c1.8,0,3.2,1.4,3.2,3.2S333.7,9.8,331.9,9.8z"/>
		</g>
		<g>
			<path class="st2" d="M331.9,34c-1.8,0-3.2-1.4-3.2-3.2c0-1.8,1.4-3.2,3.2-3.2c1.8,0,3.2,1.4,3.2,3.2
				C335.1,32.6,333.7,34,331.9,34z"/>
		</g>
		<g>
			<path class="st2" d="M331.9,58.3c-1.8,0-3.2-1.4-3.2-3.2c0-1.8,1.4-3.2,3.2-3.2c1.8,0,3.2,1.4,3.2,3.2
				C335.1,56.9,333.7,58.3,331.9,58.3z"/>
		</g>
		<g>
			<path class="st2" d="M331.9,82.6c-1.8,0-3.2-1.4-3.2-3.2c0-1.8,1.4-3.2,3.2-3.2c1.8,0,3.2,1.4,3.2,3.2
				C335.1,81.1,333.7,82.6,331.9,82.6z"/>
		</g>
		<g>
			<path class="st2" d="M331.9,106.8c-1.8,0-3.2-1.4-3.2-3.2s1.4-3.2,3.2-3.2c1.8,0,3.2,1.4,3.2,3.2S333.7,106.8,331.9,106.8z"/>
		</g>
		<g>
			<path class="st2" d="M331.9,131.1c-1.8,0-3.2-1.4-3.2-3.2c0-1.8,1.4-3.2,3.2-3.2c1.8,0,3.2,1.4,3.2,3.2
				C335.1,129.7,333.7,131.1,331.9,131.1z"/>
		</g>
		<g>
			<path class="st2" d="M331.9,155.4c-1.8,0-3.2-1.4-3.2-3.2c0-1.8,1.4-3.2,3.2-3.2c1.8,0,3.2,1.4,3.2,3.2
				C335.1,153.9,333.7,155.4,331.9,155.4z"/>
		</g>
		<g>
			<path class="st2" d="M331.9,179.6c-1.8,0-3.2-1.4-3.2-3.2c0-1.8,1.4-3.2,3.2-3.2c1.8,0,3.2,1.4,3.2,3.2
				C335.1,178.2,333.7,179.6,331.9,179.6z"/>
		</g>
		<g>
			<path class="st2" d="M331.9,203.9c-1.8,0-3.2-1.4-3.2-3.2s1.4-3.2,3.2-3.2c1.8,0,3.2,1.4,3.2,3.2S333.7,203.9,331.9,203.9z"/>
		</g>
		<g>
			<path class="st2" d="M331.9,228.2c-1.8,0-3.2-1.4-3.2-3.2s1.4-3.2,3.2-3.2c1.8,0,3.2,1.4,3.2,3.2S333.7,228.2,331.9,228.2z"/>
		</g>
		<g>
			<path class="st2" d="M331.9,252.5c-1.8,0-3.2-1.4-3.2-3.2c0-1.8,1.4-3.2,3.2-3.2c1.8,0,3.2,1.4,3.2,3.2
				C335.1,251,333.7,252.5,331.9,252.5z"/>
		</g>
		<g>
			<path class="st2" d="M331.9,276.7c-1.8,0-3.2-1.4-3.2-3.2c0-1.8,1.4-3.2,3.2-3.2c1.8,0,3.2,1.4,3.2,3.2
				C335.1,275.3,333.7,276.7,331.9,276.7z"/>
		</g>
	</g>
	<g class="st1">
		<g>
			<path class="st2" d="M440.9-38.8c-1.8,0-3.2-1.4-3.2-3.2c0-1.8,1.4-3.2,3.2-3.2c1.8,0,3.2,1.4,3.2,3.2
				C444.1-40.2,442.7-38.8,440.9-38.8z"/>
		</g>
		<g>
			<path class="st2" d="M440.9-14.5c-1.8,0-3.2-1.4-3.2-3.2s1.4-3.2,3.2-3.2c1.8,0,3.2,1.4,3.2,3.2S442.7-14.5,440.9-14.5z"/>
		</g>
		<g>
			<path class="st2" d="M440.9,9.8c-1.8,0-3.2-1.4-3.2-3.2s1.4-3.2,3.2-3.2c1.8,0,3.2,1.4,3.2,3.2S442.7,9.8,440.9,9.8z"/>
		</g>
		<g>
			<path class="st2" d="M440.9,34c-1.8,0-3.2-1.4-3.2-3.2c0-1.8,1.4-3.2,3.2-3.2c1.8,0,3.2,1.4,3.2,3.2
				C444.1,32.6,442.7,34,440.9,34z"/>
		</g>
		<g>
			<path class="st2" d="M440.9,58.3c-1.8,0-3.2-1.4-3.2-3.2c0-1.8,1.4-3.2,3.2-3.2c1.8,0,3.2,1.4,3.2,3.2
				C444.1,56.9,442.7,58.3,440.9,58.3z"/>
		</g>
		<g>
			<path class="st2" d="M440.9,82.6c-1.8,0-3.2-1.4-3.2-3.2c0-1.8,1.4-3.2,3.2-3.2c1.8,0,3.2,1.4,3.2,3.2
				C444.1,81.1,442.7,82.6,440.9,82.6z"/>
		</g>
		<g>
			<path class="st2" d="M440.9,106.8c-1.8,0-3.2-1.4-3.2-3.2s1.4-3.2,3.2-3.2c1.8,0,3.2,1.4,3.2,3.2S442.7,106.8,440.9,106.8z"/>
		</g>
		<g>
			<path class="st2" d="M440.9,131.1c-1.8,0-3.2-1.4-3.2-3.2c0-1.8,1.4-3.2,3.2-3.2c1.8,0,3.2,1.4,3.2,3.2
				C444.1,129.7,442.7,131.1,440.9,131.1z"/>
		</g>
		<g>
			<path class="st2" d="M440.9,155.4c-1.8,0-3.2-1.4-3.2-3.2c0-1.8,1.4-3.2,3.2-3.2c1.8,0,3.2,1.4,3.2,3.2
				C444.1,153.9,442.7,155.4,440.9,155.4z"/>
		</g>
		<g>
			<path class="st2" d="M440.9,179.6c-1.8,0-3.2-1.4-3.2-3.2c0-1.8,1.4-3.2,3.2-3.2c1.8,0,3.2,1.4,3.2,3.2
				C444.1,178.2,442.7,179.6,440.9,179.6z"/>
		</g>
		<g>
			<path class="st2" d="M440.9,203.9c-1.8,0-3.2-1.4-3.2-3.2s1.4-3.2,3.2-3.2c1.8,0,3.2,1.4,3.2,3.2S442.7,203.9,440.9,203.9z"/>
		</g>
		<g>
			<path class="st2" d="M440.9,228.2c-1.8,0-3.2-1.4-3.2-3.2s1.4-3.2,3.2-3.2c1.8,0,3.2,1.4,3.2,3.2S442.7,228.2,440.9,228.2z"/>
		</g>
		<g>
			<path class="st2" d="M440.9,252.5c-1.8,0-3.2-1.4-3.2-3.2c0-1.8,1.4-3.2,3.2-3.2c1.8,0,3.2,1.4,3.2,3.2
				C444.1,251,442.7,252.5,440.9,252.5z"/>
		</g>
		<g>
			<path class="st2" d="M440.9,276.7c-1.8,0-3.2-1.4-3.2-3.2c0-1.8,1.4-3.2,3.2-3.2c1.8,0,3.2,1.4,3.2,3.2
				C444.1,275.3,442.7,276.7,440.9,276.7z"/>
		</g>
	</g>
	<g class="st1">
		<g>
			<path class="st2" d="M477.3-38.8c-1.8,0-3.2-1.4-3.2-3.2c0-1.8,1.4-3.2,3.2-3.2c1.8,0,3.2,1.4,3.2,3.2
				C480.5-40.2,479-38.8,477.3-38.8z"/>
		</g>
		<g>
			<path class="st2" d="M477.3-14.5c-1.8,0-3.2-1.4-3.2-3.2s1.4-3.2,3.2-3.2c1.8,0,3.2,1.4,3.2,3.2S479-14.5,477.3-14.5z"/>
		</g>
		<g>
			<path class="st2" d="M477.3,9.8c-1.8,0-3.2-1.4-3.2-3.2s1.4-3.2,3.2-3.2c1.8,0,3.2,1.4,3.2,3.2S479,9.8,477.3,9.8z"/>
		</g>
		<g>
			<path class="st2" d="M477.3,34c-1.8,0-3.2-1.4-3.2-3.2c0-1.8,1.4-3.2,3.2-3.2c1.8,0,3.2,1.4,3.2,3.2C480.5,32.6,479,34,477.3,34z
				"/>
		</g>
		<g>
			<path class="st2" d="M477.3,58.3c-1.8,0-3.2-1.4-3.2-3.2c0-1.8,1.4-3.2,3.2-3.2c1.8,0,3.2,1.4,3.2,3.2
				C480.5,56.9,479,58.3,477.3,58.3z"/>
		</g>
		<g>
			<path class="st2" d="M477.3,82.6c-1.8,0-3.2-1.4-3.2-3.2c0-1.8,1.4-3.2,3.2-3.2c1.8,0,3.2,1.4,3.2,3.2
				C480.5,81.1,479,82.6,477.3,82.6z"/>
		</g>
		<g>
			<path class="st2" d="M477.3,106.8c-1.8,0-3.2-1.4-3.2-3.2s1.4-3.2,3.2-3.2c1.8,0,3.2,1.4,3.2,3.2S479,106.8,477.3,106.8z"/>
		</g>
		<g>
			<path class="st2" d="M477.3,131.1c-1.8,0-3.2-1.4-3.2-3.2c0-1.8,1.4-3.2,3.2-3.2c1.8,0,3.2,1.4,3.2,3.2
				C480.5,129.7,479,131.1,477.3,131.1z"/>
		</g>
		<g>
			<path class="st2" d="M477.3,155.4c-1.8,0-3.2-1.4-3.2-3.2c0-1.8,1.4-3.2,3.2-3.2c1.8,0,3.2,1.4,3.2,3.2
				C480.5,153.9,479,155.4,477.3,155.4z"/>
		</g>
		<g>
			<path class="st2" d="M477.3,179.6c-1.8,0-3.2-1.4-3.2-3.2c0-1.8,1.4-3.2,3.2-3.2c1.8,0,3.2,1.4,3.2,3.2
				C480.5,178.2,479,179.6,477.3,179.6z"/>
		</g>
		<g>
			<path class="st2" d="M477.3,203.9c-1.8,0-3.2-1.4-3.2-3.2s1.4-3.2,3.2-3.2c1.8,0,3.2,1.4,3.2,3.2S479,203.9,477.3,203.9z"/>
		</g>
		<g>
			<path class="st2" d="M477.3,228.2c-1.8,0-3.2-1.4-3.2-3.2s1.4-3.2,3.2-3.2c1.8,0,3.2,1.4,3.2,3.2S479,228.2,477.3,228.2z"/>
		</g>
		<g>
			<path class="st2" d="M477.3,252.5c-1.8,0-3.2-1.4-3.2-3.2c0-1.8,1.4-3.2,3.2-3.2c1.8,0,3.2,1.4,3.2,3.2
				C480.5,251,479,252.5,477.3,252.5z"/>
		</g>
		<g>
			<path class="st2" d="M477.3,276.7c-1.8,0-3.2-1.4-3.2-3.2c0-1.8,1.4-3.2,3.2-3.2c1.8,0,3.2,1.4,3.2,3.2
				C480.5,275.3,479,276.7,477.3,276.7z"/>
		</g>
	</g>
</g>
<g class="st0">
	<g class="st1">
		<polygon class="st2" points="-178.2,498.9 -199.2,482.3 -220.2,498.9 -241.2,482.3 -262.2,498.9 -283.1,482.4 -302.1,498.6 
			-302.8,497.8 -283.2,480.9 -262.2,497.5 -241.2,480.9 -220.2,497.5 -199.2,480.9 -178.2,497.5 -157.2,480.9 -136.2,497.5 
			-115.2,480.9 -94.3,497.5 -73.3,480.9 -51.9,497.7 -52.6,498.6 -73.3,482.3 -94.3,498.9 -115.2,482.3 -136.2,498.9 -157.2,482.3 
					"/>
	</g>
	<g class="st1">
		<polygon class="st2" points="-178.2,530.8 -199.2,514.2 -220.2,530.8 -241.2,514.2 -262.2,530.8 -283.1,514.2 -302.1,530.5 
			-302.8,529.6 -283.2,512.8 -262.2,529.3 -241.2,512.8 -220.2,529.3 -199.2,512.8 -178.2,529.3 -157.2,512.8 -136.2,529.3 
			-115.2,512.8 -94.3,529.3 -73.3,512.8 -51.9,529.6 -52.6,530.5 -73.3,514.2 -94.3,530.8 -115.2,514.2 -136.2,530.8 -157.2,514.2 
					"/>
	</g>
	<g class="st1">
		<polygon class="st2" points="-178.2,467 -199.2,450.5 -220.2,467 -241.2,450.5 -262.2,467 -283.1,450.5 -302.1,466.7 
			-302.8,465.9 -283.2,449.1 -262.2,465.6 -241.2,449.1 -220.2,465.6 -199.2,449.1 -178.2,465.6 -157.2,449.1 -136.2,465.6 
			-115.2,449.1 -94.3,465.6 -73.3,449.1 -51.9,465.9 -52.6,466.7 -73.3,450.5 -94.3,467 -115.2,450.5 -136.2,467 -157.2,450.5 		"/>
	</g>
</g>
<rect x="-253.4" y="3.3" class="st3" width="646.5" height="463.7"/>
<g class="st0">
	<g class="st1">
		<path d="M-107.2,335.5C-107.2,335.5-107.2,335.5-107.2,335.5c-0.5-0.7-1.3-0.7-1.9-0.4c-0.6,0.3-1.1,0.9-1.5,1.5
			c-4.8,6.8-9.5,13.7-14.2,20.5c-1.9,2.8-3.9,5.6-5.8,8.4c-1.1,1.6-2.2,3.3-3.4,4.9c-1,1.4-2.1,2.8-3.1,4.2
			c-0.5,0.8-1.1,1.5-1.7,2.2l-1.9,2.3c-0.4,0.4-0.8,0.8-1.2,1.2c0,0.1-0.2,0.1-0.3,0.2c-0.1-0.3-0.2-0.7-0.2-1.1
			c0.1-0.6,0.1-1.2,0.3-1.8c0.4-1.4,0.7-2.8,1.2-4.2l0.1-0.3c1.6-3.8,3.2-7.7,4.8-11.5c1.6-3.8,3.4-7.5,5-11.3
			c0.3-0.6,0.5-1.3,0.7-1.9c0-0.2,0-0.3-0.1-0.4c-0.2-0.2-0.5-0.5-0.8-0.5c-0.1,0-0.2,0-0.3-0.1c-1-0.5-1.9,1-2.4,1.6
			c-0.8,0.9-1.6,1.8-2.4,2.8c-1.8,2.1-3.4,4.4-5.1,6.5c-4.9,6.3-9.9,12.8-14.5,19.4c-1,1.4-2,2.8-3,4.2c-1.3,1.9-2.5,3.8-3.8,5.6
			c-0.6,0.8-1.2,1.7-1.7,2.5c-0.6,0.8-1.2,1.6-1.8,2.4c0,0-0.1,0.2-0.1,0.2c0-0.1,0-0.2,0-0.3c1.6-3.5,2.8-7.3,4.3-10.9
			c2-5,4-9.9,6.1-14.9c0.8-2,1.7-4,2.1-6.2c0-0.2,0-0.4-0.1-0.5c-0.2,0-2.2,5.1-2.4,5.6c-0.8,1.9-1.6,3.8-2.4,5.7
			c-1.6,3.7-3.1,7.4-4.7,11.1c-1.7,3.8-3.3,7.7-4.5,11.7c-0.2,0.5-0.2,1,0.3,1.3l0.3,0.1c0.4,0.2,0.9,0.1,1.3-0.3
			c0.2-0.1,0.4-0.3,0.5-0.5c0.6-0.7,1.1-1.4,1.6-2.2c0.9-1.2,1.8-2.5,2.6-3.7c0.8-1.1,1.5-2.1,2.2-3.2c4.1-6,8.5-11.8,12.8-17.6
			c4.1-5,8-10.2,12-15.3c0.3-0.3,0.5-0.6,0.9-0.8c-0.3,0.1-0.9,2-1.1,2.4c-0.4,0.9-0.8,1.7-1.2,2.6c-0.8,1.8-1.6,3.5-2.4,5.3
			c-2.4,5.3-4.9,10.9-6,16.7c-0.1,0.6-0.1,1.1-0.1,1.7c0,0.6,0.3,1.1,0.8,1.3c0.2,0.1,0.3,0.1,0.5,0.2c0.4,0.2,0.8,0.2,1.3,0
			c0.4-0.1,0.7-0.3,1-0.6c0.6-0.5,1.2-1.1,1.8-1.7c10.6-12.2,18.8-26.5,28.2-39.8c0.2-0.3,0.4-0.6,0.7-0.9c-0.5,0.7-0.8,1.9-1.1,2.8
			c-0.4,1-0.8,1.9-1.1,2.9c-0.8,1.9-1.5,3.9-2.3,5.8c-1.5,3.9-3,7.8-4.4,11.7c-2.8,7.8-5.4,15.7-7.5,23.7
			c-1.8,6.7-3.2,13.4-4.4,20.3c-0.1,0.4-0.1,0.9,0,1.3c0.1,0.4,0.6,0.7,1,0.6c0.4-0.2,0.5-0.6,0.6-1.1c4-24,12.7-46.8,21.8-69.2
			C-107,337.1-106.8,336.2-107.2,335.5z"/>
		<g>
			<path d="M-45.9,392.8c-0.9-1.1-2.4-1.6-3.8-2c-10.5-2.7-21.5-3.5-32.3-2.3c1.5-6-1.3-12.4-5.4-17.1c-4.1-4.7-9.5-8-14.4-11.9
				c-1.5-1.2-3-2.5-3.4-4.4c-0.6-2.9,1.9-5.4,4.2-7.1c6.8-4.9,14.7-8,22.7-10.5c4-1.2,8.2-2.4,12.3-2c1.3,0.1,3,1.1,2.4,2.3
				c0.6-0.6,0.3-1.7-0.3-2.2s-1.5-0.7-2.3-0.8c-9.1-1-18.1,2.2-26.5,5.9c-4.3,1.9-8.5,4-12,7.2c-1.6,1.4-3,3.3-3.1,5.4
				c-0.1,2.4,1.6,4.4,3.4,6c4.5,4.2,10,7.2,14.3,11.6c4.3,4.3,7.5,10.7,5.6,16.6c-0.1,0.4-0.3,0.8-0.6,1.1c-0.5,0.4-1.1,0.5-1.8,0.6
				c-10.1,1.1-20.1,3.4-29.7,7c-1.8,0.7-6.8,2.6-6.3,5.2c0.5,2.6,4.9,3.6,6.9,3.8c6.6,0.8,13.5-0.1,19.7-2.7
				c5.2-2.1,10-5.6,12.5-10.6c0.2-0.5,0.5-1,0.9-1.4c0.5-0.4,1.1-0.5,1.7-0.6c11.8-1.7,24.1-0.6,35.4,3.2
				C-45.7,393.1-45.8,392.9-45.9,392.8z M-85.4,391.1c-0.7,1-1.3,2.1-2.2,3.1c-1.6,1.8-3.4,3.2-5.4,4.5c-2.8,1.7-5.7,2.9-8.8,3.8
				c-1.9,0.6-3.9,0.9-5.8,1.2c-0.7,0.1-1.4,0.2-2.2,0.2c-0.5,0-1,0.1-1.5,0.1c-2.2,0-4.2-0.1-6.3-0.5c-0.7-0.2-1.4-0.4-1.9-0.8
				c-0.5-0.4-0.7-0.9-0.6-1.5c0-0.1,0.1-0.3,0.2-0.4c0.5-0.6,1.1-1.1,1.7-1.5c1.4-0.9,2.8-1.5,4.2-2.1c2.3-0.9,4.5-1.6,6.8-2.3
				c2.4-0.7,4.9-1.3,7.3-1.8c2.2-0.5,4.4-0.9,6.6-1.3c2.2-0.4,4.2-0.7,6.3-1l1.2-0.2c0.2,0,0.3,0,0.5,0
				C-85.3,390.8-85.3,391-85.4,391.1z"/>
		</g>
	</g>
	<g class="st1">
		<g>
			<g>
				<g>
					<rect x="-111.3" y="254.6" transform="matrix(2.429138e-03 -1 1 2.429138e-03 -407.288 186.4222)" width="2.2" height="85.5"/>
				</g>
				<g>
					<polygon points="-143,314.4 -145,313.6 -110.3,222.5 -75.5,313.6 -77.5,314.4 -110.3,228.6 					"/>
				</g>
				<g>
					<polygon points="-110.2,315.6 -138.2,298.2 -137.1,296.3 -110.2,313.1 -83.5,296.3 -82.3,298.2 					"/>
				</g>
			</g>
			<g>
				<path d="M-76,315.9h-68.8l-9.9-18.4l0.3-0.5l44.2-73.5l44.4,73.9L-76,315.9z M-110.6,313.7h33.3l9-16.4l-41.9-69.7l-42,69.9
					l8.7,16.2H-110.6z"/>
			</g>
		</g>
		<g>
			<polygon points="-175.3,203.2 -191.8,172.9 -191.6,172.5 -110.2,39.6 -28.6,172.9 -45,202.9 -46.4,202.1 -30.5,173 -110.2,42.8 
				-190,173 -173.8,202.4 			"/>
		</g>
		<g>
			<rect x="-50.5" y="75.4" transform="matrix(0.8528 -0.5222 0.5222 0.8528 -66.8525 -9.1772)" width="1.6" height="77.3"/>
		</g>
		<g>
			<rect x="-209.4" y="113.2" transform="matrix(0.5221 -0.8529 0.8529 0.5221 -178.8208 -91.142)" width="77.3" height="1.6"/>
		</g>
		<g>
			<path d="M-110.2,98.2c-16.1,0-29.2-13.1-29.2-29.2s13.1-29.2,29.2-29.2C-94.1,39.7-81,52.8-81,69S-94.1,98.2-110.2,98.2z
				 M-110.2,41.4c-15.2,0-27.6,12.4-27.6,27.6s12.4,27.6,27.6,27.6c15.2,0,27.6-12.4,27.6-27.6S-95,41.4-110.2,41.4z"/>
		</g>
		<g>
			<path d="M-110.2,126.3c-15.9,0-28.9-13-28.9-28.9h1.6c0,15,12.2,27.3,27.3,27.3s27.3-12.2,27.3-27.3h1.6
				C-81.3,113.3-94.3,126.3-110.2,126.3z"/>
		</g>
		<g>
			<polygon points="-40.2,250.8 -41.7,250 -30.5,229.5 -110.2,99.3 -190,229.5 -178.7,250 -180.2,250.8 -191.8,229.5 -191.6,229.1 
				-110.2,96.2 -28.6,229.5 			"/>
		</g>
		<g>
			<g>
				<rect x="-157.2" y="290.9" transform="matrix(0.8773 -0.4799 0.4799 0.8773 -159.5575 -39.169)" width="1.6" height="3.3"/>
			</g>
			<g>
				<path d="M-161.6,284.7l-3.7-6.8l1.4-0.8l3.7,6.8L-161.6,284.7z M-169,271.2l-3.7-6.8l1.4-0.8l3.7,6.8L-169,271.2z"/>
			</g>
			<g>
				<polygon points="-176.4,257.7 -178.2,254.5 -176.2,251.3 -174.8,252.1 -176.3,254.5 -174.9,257 				"/>
			</g>
			<g>
				<path d="M-171.5,246.7l-1.4-0.9l3.3-5.5l1.4,0.9L-171.5,246.7z M-164.8,235.7l-1.4-0.9l3.3-5.5l1.4,0.9L-164.8,235.7z
					 M-158.1,224.8l-1.4-0.9l3.3-5.5l1.4,0.9L-158.1,224.8z M-151.4,213.9l-1.4-0.9l3.3-5.5l1.4,0.9L-151.4,213.9z M-144.7,202.9
					l-1.4-0.9l3.3-5.5l1.4,0.9L-144.7,202.9z M-138,192l-1.4-0.9l3.3-5.5l1.4,0.9L-138,192z M-131.3,181.1l-1.4-0.9l3.3-5.5l1.4,0.9
					L-131.3,181.1z M-124.6,170.1l-1.4-0.9l3.3-5.5l1.4,0.9L-124.6,170.1z M-117.9,159.2l-1.4-0.9l3.3-5.5l1.4,0.9L-117.9,159.2z"/>
			</g>
			<g>
				<polygon points="-109.2,148.3 -110.2,146.6 -111.2,148.3 -112.6,147.4 -110.2,143.5 -107.8,147.4 				"/>
			</g>
			<g>
				<path d="M-48.9,246.7l-3.3-5.5l1.4-0.9l3.3,5.5L-48.9,246.7z M-55.6,235.7l-3.3-5.5l1.4-0.9l3.3,5.5L-55.6,235.7z M-62.3,224.8
					l-3.3-5.5l1.4-0.9l3.3,5.5L-62.3,224.8z M-69,213.9l-3.3-5.5l1.4-0.9l3.3,5.5L-69,213.9z M-75.7,202.9l-3.3-5.5l1.4-0.9l3.3,5.5
					L-75.7,202.9z M-82.4,192l-3.3-5.5l1.4-0.9l3.3,5.5L-82.4,192z M-89.1,181.1l-3.3-5.5l1.4-0.9l3.3,5.5L-89.1,181.1z
					 M-95.8,170.1l-3.3-5.5l1.4-0.9l3.3,5.5L-95.8,170.1z M-102.5,159.2l-3.3-5.5l1.4-0.9l3.3,5.5L-102.5,159.2z"/>
			</g>
			<g>
				<polygon points="-44,257.7 -45.5,257 -44.1,254.5 -45.6,252.1 -44.2,251.3 -42.3,254.5 				"/>
			</g>
			<g>
				<path d="M-60.1,287.1l-1.4-0.8l2.7-4.9l1.4,0.8L-60.1,287.1z M-54.8,277.3l-1.4-0.8l2.7-4.9l1.4,0.8L-54.8,277.3z M-49.4,267.5
					l-1.4-0.8l2.7-4.9l1.4,0.8L-49.4,267.5z"/>
			</g>
			<g>
				<rect x="-65.9" y="292.3" transform="matrix(0.4797 -0.8774 0.8774 0.4797 -290.6131 96.0568)" width="3.3" height="1.6"/>
			</g>
		</g>
		<g>
			<path d="M-83.7,82.9h-53l26.5-43.2L-83.7,82.9z M-133.8,81.3h47.2l-23.6-38.5L-133.8,81.3z"/>
		</g>
		<g>
			<path d="M-110.2,82.9c-8.2,0-14.8-6.7-14.8-14.8s6.7-14.8,14.8-14.8s14.8,6.7,14.8,14.8S-102,82.9-110.2,82.9z M-110.2,54.9
				c-7.3,0-13.2,5.9-13.2,13.2s5.9,13.2,13.2,13.2S-97,75.4-97,68.1S-102.9,54.9-110.2,54.9z"/>
		</g>
		<g>
			<rect x="-187.1" y="194.8" transform="matrix(0.8773 -0.48 0.48 0.8773 -121.0401 -64.3112)" width="1.6" height="19.5"/>
		</g>
		<g>
			<rect x="-44" y="203.7" transform="matrix(0.4797 -0.8774 0.8774 0.4797 -197.2731 76.35)" width="19.5" height="1.6"/>
		</g>
	</g>
</g>
<g>
	<g>
		<g>
			<g>
				<g>
					<g>
						
							<rect x="234.5" y="262.7" transform="matrix(2.429138e-03 -1 1 2.429138e-03 -72.0539 541.9138)" class="st2" width="2.3" height="88.7"/>
					</g>
					<g>
						<polygon class="st2" points="201.6,324.7 199.4,323.9 235.5,229.4 271.6,323.9 269.5,324.7 235.5,235.7 						"/>
					</g>
					<g>
						<polygon class="st2" points="235.6,326 206.5,307.9 207.7,306 235.6,323.4 263.3,306 264.5,307.9 						"/>
					</g>
				</g>
				<g>
					<path class="st2" d="M271.1,326.3h-71.4l-10.3-19.1l0.3-0.6l45.9-76.3l46.1,76.7L271.1,326.3z M235.2,324.1h34.6l9.4-17
						l-43.5-72.4L192,307.3l9.1,16.8H235.2z"/>
				</g>
			</g>
			<g>
				<polygon class="st2" points="168.1,209.4 150.9,178 151.1,177.6 235.6,39.6 320.3,178 303.3,209.1 301.8,208.3 318.3,178 
					235.6,42.9 152.8,178 169.6,208.6 				"/>
			</g>
			<g>
				
					<rect x="297.5" y="76.7" transform="matrix(0.8528 -0.5222 0.5222 0.8528 -17.0816 173.0128)" class="st2" width="1.7" height="80.2"/>
			</g>
			<g>
				
					<rect x="132.7" y="116" transform="matrix(0.5221 -0.8529 0.8529 0.5221 -17.0609 203.1669)" class="st2" width="80.2" height="1.7"/>
			</g>
			<g>
				<path class="st2" d="M235.6,100.4c-16.7,0-30.3-13.6-30.3-30.3s13.6-30.3,30.3-30.3c16.7,0,30.3,13.6,30.3,30.3
					S252.3,100.4,235.6,100.4z M235.6,41.4c-15.8,0-28.6,12.8-28.6,28.6s12.8,28.6,28.6,28.6c15.8,0,28.6-12.8,28.6-28.6
					S251.4,41.4,235.6,41.4z"/>
			</g>
			<g>
				<path class="st2" d="M235.6,129.5c-16.5,0-30-13.5-30-30h1.7c0,15.6,12.7,28.3,28.3,28.3s28.3-12.7,28.3-28.3h1.7
					C265.6,116.1,252.1,129.5,235.6,129.5z"/>
			</g>
			<g>
				<polygon class="st2" points="308.2,258.7 306.7,257.9 318.3,236.7 235.6,101.5 152.8,236.7 164.5,257.9 163,258.7 150.9,236.6 
					151.1,236.2 235.6,98.3 320.3,236.6 				"/>
			</g>
			<g>
				<g>
					
						<rect x="186.8" y="300.4" transform="matrix(0.8773 -0.4799 0.4799 0.8773 -121.9362 127.0966)" class="st2" width="1.7" height="3.4"/>
				</g>
				<g>
					<path class="st2" d="M182.3,294l-3.8-7l1.5-0.8l3.8,7L182.3,294z M174.6,280l-3.8-7l1.5-0.8l3.8,7L174.6,280z"/>
				</g>
				<g>
					<polygon class="st2" points="166.9,266 165.1,262.6 167.1,259.3 168.5,260.1 167,262.6 168.4,265.2 					"/>
				</g>
				<g>
					<path class="st2" d="M172,254.5l-1.4-0.9l3.5-5.7l1.4,0.9L172,254.5z M179,243.1l-1.4-0.9l3.5-5.7l1.4,0.9L179,243.1z
						 M185.9,231.8l-1.4-0.9l3.5-5.7l1.4,0.9L185.9,231.8z M192.9,220.4l-1.4-0.9l3.5-5.7l1.4,0.9L192.9,220.4z M199.8,209.1
						l-1.4-0.9l3.5-5.7l1.4,0.9L199.8,209.1z M206.8,197.7l-1.4-0.9l3.5-5.7l1.4,0.9L206.8,197.7z M213.7,186.4l-1.4-0.9l3.5-5.7
						l1.4,0.9L213.7,186.4z M220.6,175.1l-1.4-0.9l3.5-5.7l1.4,0.9L220.6,175.1z M227.6,163.7l-1.4-0.9l3.5-5.7l1.4,0.9L227.6,163.7
						z"/>
				</g>
				<g>
					<polygon class="st2" points="236.6,152.4 235.6,150.7 234.5,152.4 233.1,151.5 235.6,147.4 238.1,151.5 					"/>
				</g>
				<g>
					<path class="st2" d="M299.2,254.5l-3.5-5.7l1.4-0.9l3.5,5.7L299.2,254.5z M292.2,243.1l-3.5-5.7l1.4-0.9l3.5,5.7L292.2,243.1z
						 M285.3,231.8l-3.5-5.7l1.4-0.9l3.5,5.7L285.3,231.8z M278.3,220.4l-3.5-5.7l1.4-0.9l3.5,5.7L278.3,220.4z M271.4,209.1
						l-3.5-5.7l1.4-0.9l3.5,5.7L271.4,209.1z M264.4,197.7l-3.5-5.7l1.4-0.9l3.5,5.7L264.4,197.7z M257.5,186.4l-3.5-5.7l1.4-0.9
						l3.5,5.7L257.5,186.4z M250.5,175.1l-3.5-5.7l1.4-0.9l3.5,5.7L250.5,175.1z M243.6,163.7l-3.5-5.7l1.4-0.9l3.5,5.7L243.6,163.7
						z"/>
				</g>
				<g>
					<polygon class="st2" points="304.2,266 302.8,265.2 304.1,262.6 302.6,260.1 304.1,259.3 306.1,262.6 					"/>
				</g>
				<g>
					<path class="st2" d="M287.6,296.5l-1.5-0.8l2.8-5.1l1.5,0.8L287.6,296.5z M293.1,286.3l-1.5-0.8l2.8-5.1l1.5,0.8L293.1,286.3z
						 M298.7,276.1l-1.5-0.8l2.8-5.1l1.5,0.8L298.7,276.1z"/>
				</g>
				<g>
					
						<rect x="281.5" y="301.8" transform="matrix(0.4797 -0.8774 0.8774 0.4797 -118.1896 405.9581)" class="st2" width="3.4" height="1.7"/>
				</g>
			</g>
			<g>
				<path class="st2" d="M263.1,84.6h-55l27.5-44.8L263.1,84.6z M211.1,82.9h49L235.6,43L211.1,82.9z"/>
			</g>
			<g>
				<path class="st2" d="M235.6,84.6c-8.5,0-15.4-6.9-15.4-15.4s6.9-15.4,15.4-15.4S251,60.7,251,69.2S244.1,84.6,235.6,84.6z
					 M235.6,55.5c-7.6,0-13.7,6.1-13.7,13.7c0,7.6,6.1,13.7,13.7,13.7s13.7-6.1,13.7-13.7C249.3,61.6,243.1,55.5,235.6,55.5z"/>
			</g>
			<g>
				
					<rect x="155.8" y="200.6" transform="matrix(0.8773 -0.48 0.48 0.8773 -81.9404 101.0522)" class="st2" width="1.7" height="20.3"/>
			</g>
			<g>
				
					<rect x="304.3" y="209.9" transform="matrix(0.4797 -0.8774 0.8774 0.4797 -21.3288 385.5079)" class="st2" width="20.2" height="1.7"/>
			</g>
		</g>
	</g>
	<g>
		<line x1="147.2" y1="194.9" x2="146.9" y2="195.2"/>
		<path d="M162.7,193c0.9-0.3,1.9-0.5,1.8,0.6c-0.1,0.5-0.6,0.8-1,0.9c-0.5,0.1-1,0.2-1.4,0.4c-0.9,0.6-1,2-0.3,2.9
			c0.7,0.9,1.8,1.2,2.9,1.4c2.5,0.4,5.2-0.1,7.5-1.1s4.4-2.7,6.2-4.5c0.4-0.4,1.1-0.9,1.6-0.5c0.5,0.5,0,1.3-0.5,1.8
			c-2.9,2.4-6.1,4.4-9.7,5.5c-1.8,0.6-3.8,0.9-5.6,0.4c-1.8-0.5-3.5-1.9-3.9-3.7c-0.2-1.2,0.3-2.7,1.2-3.5
			C161.7,193.5,162.2,193.2,162.7,193z"/>
		<path d="M196.6,192.8c0.1,0,0.2,0,0.3,0.1c0.3,0.2,0.4,0.8,0.2,1.1c-0.2,0.4-0.6,0.6-0.9,0.8c-4.7,2.7-9.9,4.7-15.2,6
			c-0.4,0.1-0.9,0.2-1.3,0c-0.7-0.3-0.9-1.1-1-1.8c-0.1-1.2,0-2.3,0.2-3.5c0.1-0.2,0.1-0.5,0-0.7c-0.1-0.2-0.3-0.3-0.4-0.5
			c-0.3-0.6,0.4-1.2,0.8-1.8c0.3-0.4,0.4-0.9,0.5-1.4c1-4.5,2.5-8.8,4.3-13c0.3-0.8,2.4-5.7,3.6-3.6c0.2,0.4,0.2,0.8,0.2,1.2
			c-0.1,1.8-0.5,3.6-1.1,5.3c-1,3.4-2.3,6.8-4.2,9.8c-0.9,1.4-2.1,2.8-2.5,4.4c-0.4,1.4-0.3,2.9-0.2,4.3c5.6-1.2,10.9-3.4,15.7-6.4
			C195.9,193,196.2,192.8,196.6,192.8z M181.4,190c-0.1,0.2-0.1,0.4-0.2,0.5c0.3-1.1,1.4-2.2,1.9-3.2c0.6-1.2,1.1-2.4,1.6-3.6
			c0.9-2.3,2-5.1,2-7.5c-0.7,0.5-1.1,2.2-1.5,3.1c-0.5,1.2-1,2.5-1.5,3.8C182.8,185.4,182,187.7,181.4,190z"/>
		<path d="M218.1,193.1c0.1,0.3,0,0.6-0.2,0.9c-0.3,0.3-0.7,0.5-1.1,0.7c-2.2,0.9-4.4,1.9-6.6,2.8c-1.1,0.4-2.3,0.9-3.8,1.5
			c-1.5,0.5-2.8,0.9-4.1,1.2c-1.2,0.3-2.4,0.5-3.4,0.5c-2,0-3.9-0.8-4.2-3c-0.2-1.4,0.2-3,0.8-4.2c0.2-0.4,0.5-0.7,0.9-0.6
			c0.4,0.1,0.6,0.6,0.6,1c-0.1,0.4-0.3,0.8-0.5,1.1c-0.5,1-1,2.7-0.2,3.6c2.2,2.3,7,0.2,9.4-0.7c3.6-1.2,7.2-2.9,10.5-4.8
			c0.4-0.2,0.8-0.4,1.2-0.4C217.8,192.7,218,192.9,218.1,193.1z M200.6,186.6c-0.6,0.1-1.1,0.2-1.7,0.3c-0.5,0.1-1.1,0.1-1.5-0.3
			c-0.4-0.4-0.4-1.2,0.1-1.4c0.2-0.1,0.4-0.1,0.5,0c2.5,0.1,5-0.1,7.4-0.6c0.1,0,0.2-0.1,0.4,0c0.5,0.1,0.5,0.8,0.2,1.1
			c-0.3,0.3-0.8,0.4-1.3,0.5C203.3,186.3,201.9,186.4,200.6,186.6z"/>
		<path d="M231,193.2c0.1,0.2,0.1,0.5,0,0.8c-0.2,0.4-0.5,0.6-0.9,0.9c-4.8,3.4-9.4,7.1-13.6,11.1c-0.4,0.3-0.7,0.7-1,1.1
			c-0.3,0.4-0.4,1-0.5,1.5c-0.5,1.8-1.4,3.9-3.3,4.3c-0.6,0.1-1.4,0-1.7-0.5c-0.3-0.6,0-1.3,0.4-1.9c0.8-1.4,1.9-2.6,3.1-3.7
			c0.3-0.3,0.7-0.6,0.9-1c0.2-0.4,0.3-0.8,0.3-1.3c0.3-2.8,0.6-5.6,0.9-8.4c0.1-0.9,0.2-2.2,1-2.9c1.3-1.2,1.4,0.5,1,1.5
			c-1.1,3.1-1.4,6.4-1.6,9.6c4.5-3.7,9-7.5,13.5-11.2c0.4-0.3,0.8-0.6,1.2-0.4C230.8,192.9,230.9,193,231,193.2z M213.1,210.3
			c0.4-0.6,0.6-1.2,0.7-1.8c-0.2,0.1-0.4,0.3-0.5,0.5c-0.2,0.2-0.4,0.4-0.5,0.6c0,0,0,0,0,0.1c0,0,0,0-0.1,0
			c-0.2,0.3-0.5,0.5-0.7,0.8c-0.2,0.3-0.4,0.5-0.7,0.9c0,0,0,0.1-0.1,0.1c0,0,0,0.1-0.1,0.1c0.2,0,0.4,0,0.6-0.1
			C212.3,211.3,212.7,210.9,213.1,210.3z M215.9,204L215.9,204L215.9,204L215.9,204z"/>
		<path d="M243.9,193.2c0.1,0.2,0.1,0.5,0,0.8c-0.2,0.4-0.5,0.6-0.9,0.9c-4.8,3.4-9.4,7.1-13.6,11.1c-0.4,0.3-0.7,0.7-1,1.1
			c-0.3,0.4-0.4,1-0.5,1.5c-0.5,1.8-1.4,3.9-3.3,4.3c-0.6,0.1-1.4,0-1.7-0.5c-0.3-0.6,0-1.3,0.4-1.9c0.8-1.4,1.9-2.6,3.1-3.7
			c0.3-0.3,0.7-0.6,0.9-1c0.2-0.4,0.3-0.8,0.3-1.3c0.3-2.8,0.6-5.6,0.9-8.4c0.1-0.9,0.2-2.2,1-2.9c1.3-1.2,1.4,0.5,1,1.5
			c-1.1,3.1-1.4,6.4-1.6,9.6c4.5-3.7,9-7.5,13.5-11.2c0.4-0.3,0.8-0.6,1.2-0.4C243.8,192.9,243.9,193,243.9,193.2z M226,210.3
			c0.2-0.3,0.3-0.5,0.4-0.9c0.1-0.3,0.3-0.7,0.4-1c-0.2,0.2-0.4,0.4-0.6,0.6c-0.2,0.2-0.4,0.4-0.5,0.6c0,0,0,0,0,0.1c0,0,0,0-0.1,0
			c-0.2,0.3-0.5,0.5-0.7,0.8c-0.2,0.3-0.4,0.5-0.7,0.8l0,0c0,0,0,0.1-0.1,0.1c0,0,0,0.1-0.1,0.1c0.2,0,0.4,0,0.6-0.1
			c0.2-0.1,0.4-0.2,0.7-0.4S225.8,210.6,226,210.3z M228.9,204L228.9,204L228.9,204L228.9,204z"/>
		<path d="M242.7,193c0.1-0.1,0.2-0.1,0.2-0.1c0.5-0.2,1.2,0.1,1.1,0.9c-0.1,0.6-0.6,0.9-1,1.3c-1.3,1.2-2.3,2.7-2.9,4.3
			c1-0.8,2-1.5,3-2.3c0.2-0.1,0.4-0.3,0.6-0.3c0.3,0,0.6,0.2,0.9,0.3c1.6,1.1,3.3,2.2,5.3,2.4c1.9,0.1,3.8-0.8,5.3-2
			c1.5-1.2,2.7-2.7,4.1-4c0.3-0.3,0.7-0.6,1.1-0.4c0.3,0.1,0.5,0.6,0.4,0.9c-0.1,0.3-0.3,0.6-0.6,0.9c-1.3,1.4-2.8,2.7-4.3,3.8
			c-1.3,0.9-2.6,1.7-4.1,2.1c-2.7,0.6-5.5-0.7-7.9-2.2c-1.1,0.9-2.3,1.6-3.5,2.2c-0.3,0.1-0.6,0.3-0.8,0.2c-0.7-0.2-0.7-1.2-0.4-1.9
			c0.6-1.6,1.4-3,2.4-4.3C241.6,194.3,242.2,193.3,242.7,193z M239.7,199.5C239.7,199.5,239.7,199.5,239.7,199.5
			C239.7,199.5,239.7,199.5,239.7,199.5C239.7,199.5,239.7,199.5,239.7,199.5z M239.9,199.7C239.9,199.7,239.9,199.7,239.9,199.7
			C239.9,199.7,239.9,199.7,239.9,199.7z"/>
		<path d="M164.6,193.1c-0.1-0.1-0.2-0.3-0.3-0.3c-0.4-0.2-0.8,0.1-1.2,0.3c-2.7,2-5.5,4-8.6,5.3c-1,0.4-2.1,0.7-3,0.1
			c-0.9-0.7-0.9-1.9-1.4-2.8c-1.1-1.9-1.3,0.3-0.8,1.4c0.4,1,0.9,2.1,1.9,2.7c1.3,0.8,3,0.2,4.4-0.4c2.8-1.3,5.4-2.9,8-4.6
			c0.4-0.2,0.7-0.5,0.9-0.9C164.6,193.7,164.7,193.4,164.6,193.1z"/>
		<path d="M157.9,162.7C157.9,162.7,157.9,162.7,157.9,162.7c-0.3-0.5-0.9-0.5-1.3-0.3c-0.4,0.2-0.7,0.6-1,1
			c-3.3,4.7-6.5,9.4-9.7,14.1c-1.3,1.9-2.6,3.9-4,5.8c-0.8,1.1-1.5,2.2-2.3,3.3c-0.7,1-1.4,1.9-2.1,2.9c-0.4,0.5-0.8,1-1.1,1.5
			l-1.3,1.6c-0.3,0.3-0.5,0.6-0.8,0.8c0,0.1-0.1,0.1-0.2,0.1c-0.1-0.2-0.1-0.5-0.1-0.7c0.1-0.4,0.1-0.8,0.2-1.2c0.2-1,0.5-2,0.8-2.9
			l0.1-0.2c1.1-2.6,2.2-5.3,3.3-7.9c1.1-2.6,2.3-5.1,3.4-7.7c0.2-0.4,0.3-0.9,0.5-1.3c0-0.1,0-0.2-0.1-0.3c-0.2-0.1-0.3-0.3-0.6-0.3
			c-0.1,0-0.2,0-0.2-0.1c-0.7-0.3-1.3,0.7-1.7,1.1c-0.6,0.6-1.1,1.3-1.6,1.9c-1.2,1.5-2.3,3-3.5,4.5c-3.4,4.3-6.8,8.7-10,13.3
			c-0.7,1-1.4,1.9-2.1,2.9c-0.9,1.3-1.7,2.6-2.6,3.8c-0.4,0.6-0.8,1.1-1.2,1.7c-0.4,0.6-0.9,1.1-1.2,1.7c0,0-0.1,0.1-0.1,0.1
			c0-0.1,0-0.1,0-0.2c1.1-2.4,1.9-5,2.9-7.5c1.4-3.4,2.8-6.8,4.2-10.2c0.6-1.4,1.1-2.8,1.4-4.2c0-0.1,0-0.3-0.1-0.3
			c-0.1,0-1.5,3.5-1.6,3.8c-0.6,1.3-1.1,2.6-1.7,3.9c-1.1,2.5-2.1,5.1-3.2,7.6c-1.1,2.6-2.3,5.3-3.1,8c-0.1,0.4-0.2,0.7,0.2,0.9
			l0.2,0.1c0.3,0.1,0.6,0.1,0.9-0.2c0.1-0.1,0.2-0.2,0.3-0.3c0.4-0.5,0.7-1,1.1-1.5c0.6-0.8,1.2-1.7,1.8-2.6c0.5-0.7,1-1.5,1.5-2.2
			c2.8-4.1,5.8-8.1,8.8-12.1c2.8-3.4,5.5-7,8.3-10.5c0.2-0.2,0.4-0.4,0.6-0.5c-0.2,0.1-0.6,1.3-0.7,1.6c-0.3,0.6-0.5,1.2-0.8,1.8
			c-0.5,1.2-1.1,2.4-1.6,3.6c-1.6,3.7-3.4,7.5-4.1,11.5c-0.1,0.4-0.1,0.8-0.1,1.2c0,0.4,0.2,0.7,0.6,0.9c0.1,0.1,0.2,0.1,0.3,0.1
			c0.3,0.1,0.6,0.1,0.9,0c0.2-0.1,0.5-0.2,0.7-0.4c0.4-0.4,0.8-0.7,1.2-1.2c7.3-8.4,12.9-18.2,19.3-27.3c0.1-0.2,0.3-0.4,0.4-0.6
			c-0.4,0.5-0.5,1.3-0.8,1.9c-0.3,0.7-0.5,1.3-0.8,2c-0.5,1.3-1,2.7-1.6,4c-1,2.7-2,5.3-3,8c-1.9,5.3-3.7,10.7-5.1,16.2
			c-1.2,4.6-2.2,9.2-3,13.9c-0.1,0.3-0.1,0.6,0,0.9c0.1,0.3,0.4,0.5,0.7,0.4c0.3-0.1,0.3-0.4,0.4-0.7c2.7-16.5,8.7-32.1,15-47.4
			C158,163.8,158.2,163.2,157.9,162.7z"/>
		<g>
			<path d="M354.9,175.6c-0.1,0.1-0.2,0-0.3,0c-0.5-0.3-1-0.3-1.6-0.4c-0.7-0.1-1.5-0.2-2.2-0.2c-2.2-0.1-4.4-0.2-6.6-0.1h-3.7
				c-1.4,0-2.8,0.1-4.2,0.1c-1.7,0-3.4,0.1-5.1,0.2c-0.5,0-1,0-1.5,0c-0.3,0-0.4,0.1-0.6,0.3c-0.3,0.5-0.5,1-0.8,1.6
				c-1.7,3.3-3.2,6.6-4.5,10c-0.4,1.1-0.9,2.2-1.3,3.4c-1,2.8-2,5.6-2.9,8.4c-0.3,1-0.6,2-0.9,3c-0.4,1.1-0.7,2.3-1,3.4
				c-0.2,0.6-0.3,1.2-0.5,1.8c-0.1,0.4-0.1,1.9-0.6,1.9c-0.1,0-0.1,0-0.2,0c0,0-0.1,0-0.1,0c-0.1,0-0.1,0-0.1,0
				c-0.7-0.4-0.6-0.6-0.4-1.3c0.1-0.4,0.3-0.9,0.4-1.3c0.3-0.9,0.5-1.7,0.7-2.6c0.3-1,0.6-2.1,1-3.1c0.1-0.3,0.2-0.7,0.3-1
				c0.2-0.5,0.3-1.1,0.5-1.6c0.1-0.5,0.3-1,0.4-1.5c0.2-0.6,0.4-1.1,0.5-1.6l0.7-2.3c0.2-0.6,0.4-1.2,0.6-1.8
				c1.3-3.6,2.8-7,4.4-10.5c0.5-1.2,1.1-2.3,1.7-3.5l0.6-1.2c0.2-0.3,0.1-0.4-0.2-0.4c-0.7,0-1.4,0.1-2.1,0.1
				c-6.6,0.4-13.2,1.1-19.8,2.1c-1.5,0.2-3,0.5-4.6,0.4c-0.3,0-0.7-0.1-0.9-0.4c3.1-0.5,6.1-1,9.2-1.5c1.6-0.2,3.1-0.5,4.7-0.7
				c1.3-0.2,2.6-0.3,3.9-0.5c0.5-0.1,0.9-0.1,1.4-0.1l2.2-0.2c0.6-0.1,1.2-0.1,1.7-0.1c0.9-0.1,1.7-0.1,2.5-0.2h0.6
				c0.6,0,1.2-0.1,1.8-0.1c0.2,0,0.3-0.1,0.4-0.2c0.1-0.1,0.2-0.3,0.3-0.4c0.5-1.3,1.5-2.5,2.2-3.6c1.5-2.3,3.2-4.6,5.1-6.7
				c0.1-0.1,0.1-0.1,0.2-0.1c0.2,0,0.3,0.1,0.3,0.3s-0.1,0.3-0.2,0.5c-1.1,1.6-2.3,3.3-3.3,4.9c-0.5,0.8-1.1,1.7-1.6,2.5
				c-0.3,0.4-0.5,0.8-0.8,1.3c-0.2,0.3-0.6,0.8-0.6,1.2c0,0-0.1,0.1-0.1,0.1c0,0,0,0.1,0,0.2c0.1,0.1,0.2,0.1,0.3,0.1
				c0.7,0,1.3,0,2,0c0.8,0,1.6-0.1,2.4-0.1c3.6-0.1,7.2-0.1,10.8-0.1c1.8,0,3.6,0,5.4,0.2c1.2,0.1,2.8,0.1,3.7,1.1
				c0,0.1,0.1,0.1,0.1,0.2C354.9,175.4,355,175.5,354.9,175.6z"/>
			<path d="M336.3,194.6c-0.1,0.3-0.5,0.4-0.9,0.5c-0.9,0.3-1.9,0.5-2.8,0.7c-1.1,0.2-2.4,0.4-3.4-0.2c-0.1-0.1-0.2-0.1-0.3-0.1
				c-0.2,0-0.2,0.2-0.3,0.4c-0.5,1.4-1.3,2.7-2.4,3.7c-0.5,0.5-1.3,1-2,0.8c-0.6-0.2-1-0.8-1.1-1.4c-0.1-0.6,0.1-1.3,0.4-1.9
				c0.4-1,1-2,1.6-2.9c0.2-0.2,1.8-2.4,1.9-1.1c0,0.3-0.2,0.6-0.4,0.8c-1.1,1.5-1.9,3.2-2.4,4.9c0,0.1,0,0.2,0,0.3
				c0.1,0.1,0.3,0,0.4-0.1c1.8-1.4,2.9-3.4,3.5-5.6c0-0.2,0.1-0.4,0.3-0.4c0.1,0,0.1,0,0.2,0c0.5,0.3,0.5,1.1,1,1.3
				c0.2,0.1,0.3,0.1,0.5,0.1c1.6,0,3.2-0.3,4.7-0.7c0.3-0.1,0.6-0.2,0.9-0.1c0.3,0,0.6,0.3,0.6,0.6
				C336.3,194.4,336.3,194.5,336.3,194.6z"/>
			<path d="M320.5,194.6c-0.1,0.3-0.5,0.4-0.9,0.5c-0.9,0.3-1.9,0.5-2.8,0.7c-1.1,0.2-6.2,0.4-7.2-0.2c-0.1-0.1-0.2-0.1-0.3-0.1
				c-0.2,0-0.2,0.2-0.3,0.4c-0.5,1.4-1.3,2.7-2.4,3.7c-0.5,0.5-1.3,1-2,0.8c-0.6-0.2-1-0.8-1.1-1.4s0.1-1.3,0.4-1.9
				c0.4-1,1-2,1.6-2.9c0.2-0.2,1.8-2.4,1.9-1.1c0,0.3-0.2,0.6-0.4,0.8c-1.1,1.5-1.9,3.2-2.4,4.9c0,0.1,0,0.2,0,0.3
				c0.1,0.1,0.3,0,0.4-0.1c1.8-1.4,2.9-3.4,3.5-5.6c0-0.2,0.1-0.4,0.3-0.4c0.1,0,0.1,0,0.2,0c0.5,0.3,0.5,1.1,1,1.3
				c0.2,0.1,0.3,0.1,0.5,0.1c1.6,0,7-0.3,8.5-0.7c0.3-0.1,0.6-0.2,0.9-0.1c0.3,0,0.6,0.3,0.6,0.6
				C320.5,194.4,320.5,194.5,320.5,194.6z"/>
			<path d="M329.2,205.6c-0.1-0.1-0.3-0.2-0.4-0.4c-1-0.7-2.5-1-3.6-1.3c-1.4-0.3-2.8-0.6-4.2-0.8c-6.5-1-13.1-1.8-19.6-1.7
				c-1.8,0-3.7,0.3-5.6,0.3c-0.1,0-0.2,0-0.3,0c-0.1-0.2-0.1-0.4,0-0.5c0.1-0.5,0.1-0.9,0.2-1.4c0.2-4.8-2.7-9.1-6.1-12
				c-2.6-2.2-5.5-4.1-8.1-6.3c-0.9-0.7-1.5-1.3-1.8-2.4c-0.2-1-0.3-1.9,0.3-2.7s1.3-1.5,2.1-2.1c4.2-3.2,9.1-5.3,14.1-6.9
				c3.4-1.1,6.8-2.3,10.4-2c0.4,0,0.9,0.1,1.2,0.4c0.3,0.3,0.5,0.8,0.2,1.2c0.4-0.3,0.4-0.9,0.1-1.3c-0.3-0.4-0.8-0.5-1.3-0.6
				c-3-0.6-6-0.2-9,0.5c-4.7,1.1-9.3,2.9-13.5,5.3c-1.7,0.9-3.3,2-4.7,3.4c-1,1-2,2.4-1.8,3.9c0.1,1.1,0.8,2,1.6,2.9
				c3.1,3.4,7.4,5.5,10.6,8.8c1.2,1.2,2.2,2.5,2.9,3.9c1,1.9,1.4,3.9,1.1,6.2c-0.1,0.5-0.1,1.2-0.3,1.6c-0.2,0.4-0.7,0.5-1.2,0.6
				c-3,0.4-6,1-9,1.6c-1.4,0.3-2.8,0.6-4.2,0.9c-0.7,0.2-1.4,0.4-2.2,0.6c-0.6,0.2-1.5,0.7-2.1,0.7c-1.3,0.4-2.6,1-3.9,1.6
				c-1.1,0.5-2.6,1.1-3.3,2.2c-0.3,0.5-0.4,0.9-0.1,1.4c0.2,0.3,0.4,0.6,0.7,0.8c0.6,0.5,1.3,0.8,2.1,1c1.2,0.4,2.6,0.5,3.9,0.6
				c2,0.1,4-0.1,6-0.5c4.6-0.8,9.8-3,12.7-6.8c0.3-0.4,0.7-0.9,0.9-1.4c0.2-0.3,0.7-0.9,0.7-1.3c0-0.3,0.2-0.5,0.5-0.5
				c0.4-0.1,0.7-0.1,1-0.1c6.4-0.6,12.9-0.3,19.3,0.4c1.5,0.2,3.1,0.4,4.6,0.6l4.5,0.7c0.8,0.1,1.6,0.4,2.4,0.5
				c0.7,0.2,1.4,0.3,2,0.8c0.1,0.1,0.3,0.1,0.3,0C329.3,205.9,329.3,205.8,329.2,205.6z M292.9,203.6c-0.5,0.7-0.9,1.4-1.5,2.1
				c-1.1,1.2-2.4,2.2-3.7,3.1c-1.9,1.2-3.9,2-6,2.6c-1.3,0.4-2.7,0.6-4,0.8c-0.5,0.1-1,0.1-1.5,0.1c-0.4,0-0.7,0.1-1,0.1
				c-1.5,0-2.9-0.1-4.3-0.3c-0.5-0.1-0.9-0.2-1.3-0.6c-0.3-0.2-0.5-0.6-0.4-1c0-0.1,0.1-0.2,0.1-0.2c0.3-0.4,0.7-0.7,1.2-1.1
				c0.9-0.6,1.9-1,2.9-1.4c1.5-0.6,3.1-1.1,4.7-1.6c1.6-0.5,3.3-0.9,5-1.3c1.5-0.3,3-0.6,4.5-0.9c1.5-0.2,2.9-0.5,4.4-0.7l0.8-0.1
				c0.1,0,0.2,0,0.4,0C293,203.4,293,203.5,292.9,203.6z"/>
		</g>
	</g>
</g>
</svg>
